{
  "accessors": [
    {
      "bufferView": 2,
      "componentType": 5126,
      "count": 16832,
      "max": [
        0.8284159898757935,
        0.4732530117034912,
        0.5193840265274048
      ],
      "min": [
        -0.8284159898757935,
        -0.4732530117034912,
        -8.743509774131132e-16
      ],
      "type": "VEC3"
    },
    {
      "bufferView": 2,
      "byteOffset": 201984,
      "componentType": 5126,
      "count": 16832,
      "max": [
        0.9995790123939514,
        0.9877617359161377,
        1.0
      ],
      "min": [
        -0.9997391700744629,
        -0.9877614378929138,
        -1.0
      ],
      "type": "VEC3"
    },
    {
      "bufferView": 1,
      "componentType": 5126,
      "count": 16832,
      "max": [
        0.946241021156311,
        1.101349949836731
      ],
      "min": [
        -0.946241021156311,
        -1.0951900482177734
      ],
      "type": "VEC2"
    },
    {
      "bufferView": 0,
      "componentType": 5125,
      "count": 26496,
      "type": "SCALAR"
    },
    {
      "bufferView": 2,
      "byteOffset": 403968,
      "componentType": 5126,
      "count": 1219,
      "max": [
        0.8261299729347229,
        0.4732530117034912,
        0.49330800771713257
      ],
      "min": [
        -0.11781500279903412,
        -0.47312501072883606,
        0.02607709914445877
      ],
      "type": "VEC3"
    },
    {
      "bufferView": 2,
      "byteOffset": 418596,
      "componentType": 5126,
      "count": 1219,
      "max": [
        0.9414207935333252,
        0.9999996423721313,
        0.9415073990821838
      ],
      "min": [
        -0.9414726495742798,
        -0.9999996423721313,
        -0.9417186975479126
      ],
      "type": "VEC3"
    },
    {
      "bufferView": 1,
      "byteOffset": 134656,
      "componentType": 5126,
      "count": 1219,
      "max": [
        0.946241021156311,
        0.946241021156311
      ],
      "min": [
        -0.946241021156311,
        -1.4018600417850584e-16
      ],
      "type": "VEC2"
    },
    {
      "bufferView": 0,
      "byteOffset": 105984,
      "componentType": 5125,
      "count": 2448,
      "type": "SCALAR"
    },
    {
      "bufferView": 2,
      "byteOffset": 433224,
      "componentType": 5126,
      "count": 1222,
      "max": [
        0.11782500147819519,
        0.4729880094528198,
        0.1968500018119812
      ],
      "min": [
        -0.8284159898757935,
        -0.4732530117034912,
        0.0393701009452343
      ],
      "type": "VEC3"
    },
    {
      "bufferView": 2,
      "byteOffset": 447888,
      "componentType": 5126,
      "count": 1222,
      "max": [
        0.9999451637268066,
        0.9999452829360962,
        1.0
      ],
      "min": [
        -1.0,
        -0.9999451637268066,
        -1.0
      ],
      "type": "VEC3"
    },
    {
      "bufferView": 1,
      "byteOffset": 144408,
      "componentType": 5126,
      "count": 1222,
      "max": [
        0.946241021156311,
        0.946241021156311
      ],
      "min": [
        -0.946241021156311,
        -1.6368200330362558e-18
      ],
      "type": "VEC2"
    },
    {
      "bufferView": 0,
      "byteOffset": 115776,
      "componentType": 5125,
      "count": 2448,
      "type": "SCALAR"
    }
  ],
  "asset": {
    "extras": {
      "author": "WISPELORD (https://sketchfab.com/WISPELORD)",
      "license": "CC-BY-NC-4.0 (http://creativecommons.org/licenses/by-nc/4.0/)",
      "source": "https://sketchfab.com/3d-models/rings-e0f24f571cab4b688bf02d1f901dcf34",
      "title": "Rings"
    },
    "generator": "Sketchfab-12.67.0",
    "version": "2.0"
  },
  "bufferViews": [
    {
      "buffer": 0,
      "byteLength": 125568,
      "name": "floatBufferViews",
      "target": 34963
    },
    {
      "buffer": 0,
      "byteLength": 154184,
      "byteOffset": 125568,
      "byteStride": 8,
      "name": "floatBufferViews",
      "target": 34962
    },
    {
      "buffer": 0,
      "byteLength": 462552,
      "byteOffset": 279752,
      "byteStride": 12,
      "name": "floatBufferViews",
      "target": 34962
    }
  ],
  "buffers": [
    {
      "byteLength": 742304,
      "uri": "scene.bin"
    }
  ],
  "materials": [
    {
      "doubleSided": true,
      "name": "Paint_Matte_Black",
      "pbrMetallicRoughness": {
        "baseColorFactor": [
          0.0025,
          0.0025,
          0.0025,
          1.0
        ],
        "metallicFactor": 0.0
      }
    },
    {
      "doubleSided": true,
      "emissiveFactor": [
        1.0,
        0.2575851707993967,
        0.0
      ],
      "name": "Color_C04",
      "pbrMetallicRoughness": {
        "baseColorFactor": [
          1.0,
          0.153787,
          0.0,
          1.0
        ],
        "metallicFactor": 0.0
      }
    },
    {
      "doubleSided": true,
      "emissiveFactor": [
        0.0,
        0.1883204192893292,
        1.0
      ],
      "name": "Color_I04",
      "pbrMetallicRoughness": {
        "baseColorFactor": [
          0.0,
          0.12457499999999973,
          1.0,
          1.0
        ],
        "metallicFactor": 0.0
      }
    }
  ],
  "meshes": [
    {
      "name": "Object_0",
      "primitives": [
        {
          "attributes": {
            "NORMAL": 1,
            "POSITION": 0,
            "TEXCOORD_0": 2
          },
          "indices": 3,
          "material": 0,
          "mode": 4
        }
      ]
    },
    {
      "name": "Object_1",
      "primitives": [
        {
          "attributes": {
            "NORMAL": 5,
            "POSITION": 4,
            "TEXCOORD_0": 6
          },
          "indices": 7,
          "material": 1,
          "mode": 4
        }
      ]
    },
    {
      "name": "Object_2",
      "primitives": [
        {
          "attributes": {
            "NORMAL": 9,
            "POSITION": 8,
            "TEXCOORD_0": 10
          },
          "indices": 11,
          "material": 2,
          "mode": 4
        }
      ]
    }
  ],
  "nodes": [
    {
      "children": [
        1
      ],
      "matrix": [
        1.0,
        0.0,
        0.0,
        0.0,
        0.0,
        2.220446049250313e-16,
        -1.0,
        0.0,
        0.0,
        1.0,
        2.220446049250313e-16,
        0.0,
        0.0,
        0.0,
        0.0,
        1.0
      ],
      "name": "Sketchfab_model"
    },
    {
      "children": [
        2,
        3,
        4
      ],
      "name": "rings.obj.cleaner.materialmerger.gles"
    },
    {
      "mesh": 0,
      "name": "Object_2"
    },
    {
      "mesh": 1,
      "name": "Object_3"
    },
    {
      "mesh": 2,
      "name": "Object_4"
    }
  ],
  "scene": 0,
  "scenes": [
    {
      "name": "Sketchfab_Scene",
      "nodes": [
        0
      ]
    }
  ]
}
